<mxfile host="app.diagrams.net" agent="Mozilla/5.0 (Macintosh; Intel Mac OS X 10_15_7) AppleWebKit/537.36 (KHTML, like Gecko) Chrome/128.0.0.0 Safari/537.36" version="24.8.9">
  <diagram name="第 1 页" id="LQcF9iz2G6Q7PySd7AZL">
    <mxGraphModel dx="1434" dy="785" grid="1" gridSize="10" guides="1" tooltips="1" connect="1" arrows="1" fold="1" page="1" pageScale="1" pageWidth="827" pageHeight="1169" math="0" shadow="0">
      <root>
        <mxCell id="0" />
        <mxCell id="1" parent="0" />
        <mxCell id="c17CpZpJNVwl6MK3H9wP-9" value="Region" style="points=[[0,0],[0.25,0],[0.5,0],[0.75,0],[1,0],[1,0.25],[1,0.5],[1,0.75],[1,1],[0.75,1],[0.5,1],[0.25,1],[0,1],[0,0.75],[0,0.5],[0,0.25]];outlineConnect=0;gradientColor=none;html=1;whiteSpace=wrap;fontSize=12;fontStyle=0;container=1;pointerEvents=0;collapsible=0;recursiveResize=0;shape=mxgraph.aws4.group;grIcon=mxgraph.aws4.group_region;strokeColor=#00A4A6;fillColor=none;verticalAlign=top;align=left;spacingLeft=30;fontColor=#147EBA;dashed=1;" vertex="1" parent="1">
          <mxGeometry x="34" y="80" width="760" height="680" as="geometry" />
        </mxCell>
        <mxCell id="c17CpZpJNVwl6MK3H9wP-15" value="&lt;font style=&quot;font-size: 18px;&quot;&gt;igw&lt;/font&gt;" style="text;strokeColor=none;align=center;fillColor=none;html=1;verticalAlign=middle;whiteSpace=wrap;rounded=0;fontSize=14;" vertex="1" parent="c17CpZpJNVwl6MK3H9wP-9">
          <mxGeometry x="307.5" y="30" width="117" height="30" as="geometry" />
        </mxCell>
        <mxCell id="c17CpZpJNVwl6MK3H9wP-38" value="&lt;span style=&quot;color: rgb(22, 25, 31); font-family: &amp;quot;Amazon Ember&amp;quot;, &amp;quot;Helvetica Neue&amp;quot;, Roboto, Arial, sans-serif; text-align: start; background-color: rgb(255, 255, 255);&quot;&gt;10.0.0.0/16&lt;/span&gt;" style="text;strokeColor=none;align=center;fillColor=none;html=1;verticalAlign=middle;whiteSpace=wrap;rounded=0;fontSize=18;" vertex="1" parent="c17CpZpJNVwl6MK3H9wP-9">
          <mxGeometry x="72" y="60" width="60" height="30" as="geometry" />
        </mxCell>
        <mxCell id="c17CpZpJNVwl6MK3H9wP-2" value="VPC" style="points=[[0,0],[0.25,0],[0.5,0],[0.75,0],[1,0],[1,0.25],[1,0.5],[1,0.75],[1,1],[0.75,1],[0.5,1],[0.25,1],[0,1],[0,0.75],[0,0.5],[0,0.25]];outlineConnect=0;gradientColor=none;html=1;whiteSpace=wrap;fontSize=12;fontStyle=0;container=1;pointerEvents=0;collapsible=0;recursiveResize=0;shape=mxgraph.aws4.group;grIcon=mxgraph.aws4.group_vpc2;strokeColor=#00CC66;fillColor=none;verticalAlign=top;align=left;spacingLeft=30;fontColor=#AAB7B8;dashed=0;" vertex="1" parent="1">
          <mxGeometry x="106" y="170" width="615" height="530" as="geometry" />
        </mxCell>
        <mxCell id="c17CpZpJNVwl6MK3H9wP-10" value="Subnet" style="sketch=0;outlineConnect=0;gradientColor=none;html=1;whiteSpace=wrap;fontSize=12;fontStyle=0;shape=mxgraph.aws4.group;grIcon=mxgraph.aws4.group_subnet;strokeColor=#879196;fillColor=none;verticalAlign=top;align=left;spacingLeft=30;fontColor=#879196;dashed=0;" vertex="1" parent="c17CpZpJNVwl6MK3H9wP-2">
          <mxGeometry x="104" y="170" width="206" height="240" as="geometry" />
        </mxCell>
        <mxCell id="c17CpZpJNVwl6MK3H9wP-8" value="" style="sketch=0;points=[[0,0,0],[0.25,0,0],[0.5,0,0],[0.75,0,0],[1,0,0],[0,1,0],[0.25,1,0],[0.5,1,0],[0.75,1,0],[1,1,0],[0,0.25,0],[0,0.5,0],[0,0.75,0],[1,0.25,0],[1,0.5,0],[1,0.75,0]];outlineConnect=0;fontColor=#232F3E;fillColor=#ED7100;strokeColor=#ffffff;dashed=0;verticalLabelPosition=bottom;verticalAlign=top;align=center;html=1;fontSize=12;fontStyle=0;aspect=fixed;shape=mxgraph.aws4.resourceIcon;resIcon=mxgraph.aws4.ec2;" vertex="1" parent="c17CpZpJNVwl6MK3H9wP-2">
          <mxGeometry x="168" y="251" width="78" height="78" as="geometry" />
        </mxCell>
        <mxCell id="c17CpZpJNVwl6MK3H9wP-11" value="" style="sketch=0;outlineConnect=0;fontColor=#232F3E;gradientColor=none;fillColor=#8C4FFF;strokeColor=none;dashed=0;verticalLabelPosition=bottom;verticalAlign=top;align=center;html=1;fontSize=12;fontStyle=0;aspect=fixed;pointerEvents=1;shape=mxgraph.aws4.internet_gateway;" vertex="1" parent="c17CpZpJNVwl6MK3H9wP-2">
          <mxGeometry x="264" y="-30" width="60" height="60" as="geometry" />
        </mxCell>
        <mxCell id="c17CpZpJNVwl6MK3H9wP-13" value="&lt;font style=&quot;font-size: 18px;&quot;&gt;main route table&lt;/font&gt;" style="text;strokeColor=none;align=center;fillColor=none;html=1;verticalAlign=middle;whiteSpace=wrap;rounded=0;" vertex="1" parent="c17CpZpJNVwl6MK3H9wP-2">
          <mxGeometry x="387" y="140" width="161" height="30" as="geometry" />
        </mxCell>
        <mxCell id="c17CpZpJNVwl6MK3H9wP-14" value="ec2" style="text;strokeColor=none;align=center;fillColor=none;html=1;verticalAlign=middle;whiteSpace=wrap;rounded=0;" vertex="1" parent="c17CpZpJNVwl6MK3H9wP-2">
          <mxGeometry x="148.5" y="221" width="117" height="30" as="geometry" />
        </mxCell>
        <mxCell id="c17CpZpJNVwl6MK3H9wP-17" value="Assets" style="childLayout=tableLayout;recursiveResize=0;strokeColor=#98bf21;fillColor=#A7C942;shadow=1;" vertex="1" parent="c17CpZpJNVwl6MK3H9wP-2">
          <mxGeometry x="374" y="185" width="187" height="127" as="geometry" />
        </mxCell>
        <mxCell id="c17CpZpJNVwl6MK3H9wP-18" style="shape=tableRow;horizontal=0;startSize=0;swimlaneHead=0;swimlaneBody=0;top=0;left=0;bottom=0;right=0;dropTarget=0;collapsible=0;recursiveResize=0;expand=0;fontStyle=0;strokeColor=inherit;fillColor=#ffffff;" vertex="1" parent="c17CpZpJNVwl6MK3H9wP-17">
          <mxGeometry width="187" height="33" as="geometry" />
        </mxCell>
        <mxCell id="c17CpZpJNVwl6MK3H9wP-19" value="destination" style="connectable=0;recursiveResize=0;strokeColor=inherit;fillColor=#A7C942;align=center;fontStyle=1;fontColor=#FFFFFF;html=1;" vertex="1" parent="c17CpZpJNVwl6MK3H9wP-18">
          <mxGeometry width="93" height="33" as="geometry">
            <mxRectangle width="93" height="33" as="alternateBounds" />
          </mxGeometry>
        </mxCell>
        <mxCell id="c17CpZpJNVwl6MK3H9wP-20" value="target" style="connectable=0;recursiveResize=0;strokeColor=inherit;fillColor=#A7C942;align=center;fontStyle=1;fontColor=#FFFFFF;html=1;" vertex="1" parent="c17CpZpJNVwl6MK3H9wP-18">
          <mxGeometry x="93" width="94" height="33" as="geometry">
            <mxRectangle width="94" height="33" as="alternateBounds" />
          </mxGeometry>
        </mxCell>
        <mxCell id="c17CpZpJNVwl6MK3H9wP-22" value="" style="shape=tableRow;horizontal=0;startSize=0;swimlaneHead=0;swimlaneBody=0;top=0;left=0;bottom=0;right=0;dropTarget=0;collapsible=0;recursiveResize=0;expand=0;fontStyle=0;strokeColor=inherit;fillColor=#ffffff;" vertex="1" parent="c17CpZpJNVwl6MK3H9wP-17">
          <mxGeometry y="33" width="187" height="32" as="geometry" />
        </mxCell>
        <mxCell id="c17CpZpJNVwl6MK3H9wP-23" value="&lt;span style=&quot;color: rgb(22, 25, 31); font-family: &amp;quot;Amazon Ember&amp;quot;, &amp;quot;Helvetica Neue&amp;quot;, Roboto, Arial, sans-serif; font-size: 14px; text-align: start; background-color: rgb(255, 255, 255);&quot;&gt;10.0.0.0/16&lt;/span&gt;" style="connectable=0;recursiveResize=0;strokeColor=inherit;fillColor=inherit;align=center;whiteSpace=wrap;html=1;" vertex="1" parent="c17CpZpJNVwl6MK3H9wP-22">
          <mxGeometry width="93" height="32" as="geometry">
            <mxRectangle width="93" height="32" as="alternateBounds" />
          </mxGeometry>
        </mxCell>
        <mxCell id="c17CpZpJNVwl6MK3H9wP-24" value="&lt;font style=&quot;font-size: 14px;&quot;&gt;local&lt;/font&gt;" style="connectable=0;recursiveResize=0;strokeColor=inherit;fillColor=inherit;align=center;whiteSpace=wrap;html=1;" vertex="1" parent="c17CpZpJNVwl6MK3H9wP-22">
          <mxGeometry x="93" width="94" height="32" as="geometry">
            <mxRectangle width="94" height="32" as="alternateBounds" />
          </mxGeometry>
        </mxCell>
        <mxCell id="c17CpZpJNVwl6MK3H9wP-26" value="" style="shape=tableRow;horizontal=0;startSize=0;swimlaneHead=0;swimlaneBody=0;top=0;left=0;bottom=0;right=0;dropTarget=0;collapsible=0;recursiveResize=0;expand=0;fontStyle=1;strokeColor=inherit;fillColor=#EAF2D3;" vertex="1" parent="c17CpZpJNVwl6MK3H9wP-17">
          <mxGeometry y="65" width="187" height="31" as="geometry" />
        </mxCell>
        <mxCell id="c17CpZpJNVwl6MK3H9wP-27" value="&lt;font style=&quot;font-size: 14px;&quot;&gt;0.0.0.0/0&lt;/font&gt;" style="connectable=0;recursiveResize=0;strokeColor=inherit;fillColor=inherit;whiteSpace=wrap;html=1;" vertex="1" parent="c17CpZpJNVwl6MK3H9wP-26">
          <mxGeometry width="93" height="31" as="geometry">
            <mxRectangle width="93" height="31" as="alternateBounds" />
          </mxGeometry>
        </mxCell>
        <mxCell id="c17CpZpJNVwl6MK3H9wP-28" value="&lt;font style=&quot;font-size: 14px;&quot;&gt;igw&lt;/font&gt;" style="connectable=0;recursiveResize=0;strokeColor=inherit;fillColor=inherit;whiteSpace=wrap;html=1;" vertex="1" parent="c17CpZpJNVwl6MK3H9wP-26">
          <mxGeometry x="93" width="94" height="31" as="geometry">
            <mxRectangle width="94" height="31" as="alternateBounds" />
          </mxGeometry>
        </mxCell>
        <mxCell id="c17CpZpJNVwl6MK3H9wP-34" value="" style="shape=tableRow;horizontal=0;startSize=0;swimlaneHead=0;swimlaneBody=0;top=0;left=0;bottom=0;right=0;dropTarget=0;collapsible=0;recursiveResize=0;expand=0;fontStyle=1;strokeColor=inherit;fillColor=#EAF2D3;" vertex="1" parent="c17CpZpJNVwl6MK3H9wP-17">
          <mxGeometry y="96" width="187" height="31" as="geometry" />
        </mxCell>
        <mxCell id="c17CpZpJNVwl6MK3H9wP-35" value="" style="connectable=0;recursiveResize=0;strokeColor=inherit;fillColor=inherit;whiteSpace=wrap;html=1;" vertex="1" parent="c17CpZpJNVwl6MK3H9wP-34">
          <mxGeometry width="93" height="31" as="geometry">
            <mxRectangle width="93" height="31" as="alternateBounds" />
          </mxGeometry>
        </mxCell>
        <mxCell id="c17CpZpJNVwl6MK3H9wP-36" value="" style="connectable=0;recursiveResize=0;strokeColor=inherit;fillColor=inherit;whiteSpace=wrap;html=1;" vertex="1" parent="c17CpZpJNVwl6MK3H9wP-34">
          <mxGeometry x="93" width="94" height="31" as="geometry">
            <mxRectangle width="94" height="31" as="alternateBounds" />
          </mxGeometry>
        </mxCell>
        <mxCell id="c17CpZpJNVwl6MK3H9wP-39" value="&lt;span style=&quot;color: rgb(22, 25, 31); font-family: &amp;quot;Amazon Ember&amp;quot;, &amp;quot;Helvetica Neue&amp;quot;, Roboto, Arial, sans-serif; text-align: start; text-wrap: nowrap; background-color: rgb(241, 250, 255);&quot;&gt;10.0.0.0/24&lt;/span&gt;" style="text;strokeColor=none;align=center;fillColor=none;html=1;verticalAlign=middle;whiteSpace=wrap;rounded=0;fontSize=18;" vertex="1" parent="c17CpZpJNVwl6MK3H9wP-2">
          <mxGeometry x="104" y="140" width="60" height="30" as="geometry" />
        </mxCell>
      </root>
    </mxGraphModel>
  </diagram>
</mxfile>
